<?xml version="1.0" encoding="utf-8" standalone="no"?>
<!DOCTYPE svg PUBLIC "-//W3C//DTD SVG 1.1//EN"
  "http://www.w3.org/Graphics/SVG/1.1/DTD/svg11.dtd">
<svg xmlns:xlink="http://www.w3.org/1999/xlink" width="365.080625pt" height="314.343975pt" viewBox="0 0 365.080625 314.343975" xmlns="http://www.w3.org/2000/svg" version="1.1">
 <metadata>
  <rdf:RDF xmlns:dc="http://purl.org/dc/elements/1.1/" xmlns:cc="http://creativecommons.org/ns#" xmlns:rdf="http://www.w3.org/1999/02/22-rdf-syntax-ns#">
   <cc:Work>
    <dc:type rdf:resource="http://purl.org/dc/dcmitype/StillImage"/>
    <dc:date>2026-02-20T22:27:46.534465</dc:date>
    <dc:format>image/svg+xml</dc:format>
    <dc:creator>
     <cc:Agent>
      <dc:title>Matplotlib v3.9.4, https://matplotlib.org/</dc:title>
     </cc:Agent>
    </dc:creator>
   </cc:Work>
  </rdf:RDF>
 </metadata>
 <defs>
  <style type="text/css">*{stroke-linejoin: round; stroke-linecap: butt}</style>
 </defs>
 <g id="figure_1">
  <g id="patch_1">
   <path d="M 0 314.343975 
L 365.080625 314.343975 
L 365.080625 0 
L 0 0 
z
" style="fill: #ffffff"/>
  </g>
  <g id="axes_1">
   <g id="patch_2">
    <path d="M 34.240625 276.787725 
L 357.880625 276.787725 
L 357.880625 22.318125 
L 34.240625 22.318125 
z
" style="fill: #ffffff"/>
   </g>
   <g id="PathCollection_1">
    <defs>
     <path id="C0_0_6678e6cae6" d="M 0 3.24037 
C 0.859356 3.24037 1.683631 2.898944 2.291288 2.291288 
C 2.898944 1.683631 3.24037 0.859356 3.24037 -0 
C 3.24037 -0.859356 2.898944 -1.683631 2.291288 -2.291288 
C 1.683631 -2.898944 0.859356 -3.24037 0 -3.24037 
C -0.859356 -3.24037 -1.683631 -2.898944 -2.291288 -2.291288 
C -2.898944 -1.683631 -3.24037 -0.859356 -3.24037 0 
C -3.24037 0.859356 -2.898944 1.683631 -2.291288 2.291288 
C -1.683631 2.898944 -0.859356 3.24037 0 3.24037 
z
"/>
    </defs>
    <g clip-path="url(#pcc624fcd33)">
     <use xlink:href="#C0_0_6678e6cae6" x="157.262062" y="76.612949" style="fill: #9467bd"/>
    </g>
    <g clip-path="url(#pcc624fcd33)">
     <use xlink:href="#C0_0_6678e6cae6" x="53.513676" y="76.612949" style="fill: #9467bd"/>
    </g>
    <g clip-path="url(#pcc624fcd33)">
     <use xlink:href="#C0_0_6678e6cae6" x="181.341851" y="76.612949" style="fill: #9467bd"/>
    </g>
    <g clip-path="url(#pcc624fcd33)">
     <use xlink:href="#C0_0_6678e6cae6" x="168.705407" y="76.612949" style="fill: #9467bd"/>
    </g>
   </g>
   <g id="PathCollection_2">
    <defs>
     <path id="C1_0_7d97c040af" d="M 0 3.24037 
C 0.859356 3.24037 1.683631 2.898944 2.291288 2.291288 
C 2.898944 1.683631 3.24037 0.859356 3.24037 -0 
C 3.24037 -0.859356 2.898944 -1.683631 2.291288 -2.291288 
C 1.683631 -2.898944 0.859356 -3.24037 0 -3.24037 
C -0.859356 -3.24037 -1.683631 -2.898944 -2.291288 -2.291288 
C -2.898944 -1.683631 -3.24037 -0.859356 -3.24037 0 
C -3.24037 0.859356 -2.898944 1.683631 -2.291288 2.291288 
C -1.683631 2.898944 -0.859356 3.24037 0 3.24037 
z
"/>
    </defs>
    <g clip-path="url(#pcc624fcd33)">
     <use xlink:href="#C1_0_7d97c040af" x="120.324514" y="76.612949" style="fill: #1f77b4"/>
    </g>
    <g clip-path="url(#pcc624fcd33)">
     <use xlink:href="#C1_0_7d97c040af" x="227.923206" y="76.612949" style="fill: #1f77b4"/>
    </g>
    <g clip-path="url(#pcc624fcd33)">
     <use xlink:href="#C1_0_7d97c040af" x="134.770266" y="76.612949" style="fill: #1f77b4"/>
    </g>
   </g>
   <g id="PathCollection_3">
    <defs>
     <path id="C2_0_a0b61bb1db" d="M 0 3.24037 
C 0.859356 3.24037 1.683631 2.898944 2.291288 2.291288 
C 2.898944 1.683631 3.24037 0.859356 3.24037 -0 
C 3.24037 -0.859356 2.898944 -1.683631 2.291288 -2.291288 
C 1.683631 -2.898944 0.859356 -3.24037 0 -3.24037 
C -0.859356 -3.24037 -1.683631 -2.898944 -2.291288 -2.291288 
C -2.898944 -1.683631 -3.24037 -0.859356 -3.24037 0 
C -3.24037 0.859356 -2.898944 1.683631 -2.291288 2.291288 
C -1.683631 2.898944 -0.859356 3.24037 0 3.24037 
z
"/>
    </defs>
    <g clip-path="url(#pcc624fcd33)">
     <use xlink:href="#C2_0_a0b61bb1db" x="343.169716" y="265.220925" style="fill: #8c564b"/>
    </g>
    <g clip-path="url(#pcc624fcd33)">
     <use xlink:href="#C2_0_a0b61bb1db" x="131.264057" y="76.612949" style="fill: #8c564b"/>
    </g>
   </g>
   <g id="PathCollection_4">
    <defs>
     <path id="C3_0_2267d72840" d="M 0 3.24037 
C 0.859356 3.24037 1.683631 2.898944 2.291288 2.291288 
C 2.898944 1.683631 3.24037 0.859356 3.24037 -0 
C 3.24037 -0.859356 2.898944 -1.683631 2.291288 -2.291288 
C 1.683631 -2.898944 0.859356 -3.24037 0 -3.24037 
C -0.859356 -3.24037 -1.683631 -2.898944 -2.291288 -2.291288 
C -2.898944 -1.683631 -3.24037 -0.859356 -3.24037 0 
C -3.24037 0.859356 -2.898944 1.683631 -2.291288 2.291288 
C -1.683631 2.898944 -0.859356 3.24037 0 3.24037 
z
"/>
    </defs>
    <g clip-path="url(#pcc624fcd33)">
     <use xlink:href="#C3_0_2267d72840" x="118.682848" y="76.612949" style="fill: #d62728"/>
    </g>
    <g clip-path="url(#pcc624fcd33)">
     <use xlink:href="#C3_0_2267d72840" x="48.951534" y="76.612949" style="fill: #d62728"/>
    </g>
    <g clip-path="url(#pcc624fcd33)">
     <use xlink:href="#C3_0_2267d72840" x="69.729266" y="76.612949" style="fill: #d62728"/>
    </g>
   </g>
   <g id="PathCollection_5">
    <path d="M 200.046774 106.797316 
C 200.90613 106.797316 201.730405 106.45589 202.338062 105.848234 
C 202.945718 105.240577 203.287144 104.416302 203.287144 103.556946 
C 203.287144 102.69759 202.945718 101.873315 202.338062 101.265658 
C 201.730405 100.658001 200.90613 100.316575 200.046774 100.316575 
C 199.187418 100.316575 198.363143 100.658001 197.755486 101.265658 
C 197.147829 101.873315 196.806404 102.69759 196.806404 103.556946 
C 196.806404 104.416302 197.147829 105.240577 197.755486 105.848234 
C 198.363143 106.45589 199.187418 106.797316 200.046774 106.797316 
z
" clip-path="url(#pcc624fcd33)" style="fill: #ff7f0e"/>
   </g>
   <g id="PathCollection_6">
    <defs>
     <path id="C4_0_eaeacab37e" d="M 0 3.24037 
C 0.859356 3.24037 1.683631 2.898944 2.291288 2.291288 
C 2.898944 1.683631 3.24037 0.859356 3.24037 -0 
C 3.24037 -0.859356 2.898944 -1.683631 2.291288 -2.291288 
C 1.683631 -2.898944 0.859356 -3.24037 0 -3.24037 
C -0.859356 -3.24037 -1.683631 -2.898944 -2.291288 -2.291288 
C -2.898944 -1.683631 -3.24037 -0.859356 -3.24037 0 
C -3.24037 0.859356 -2.898944 1.683631 -2.291288 2.291288 
C -1.683631 2.898944 -0.859356 3.24037 0 3.24037 
z
"/>
    </defs>
    <g clip-path="url(#pcc624fcd33)">
     <use xlink:href="#C4_0_eaeacab37e" x="228.248231" y="265.220925" style="fill: #2ca02c"/>
    </g>
    <g clip-path="url(#pcc624fcd33)">
     <use xlink:href="#C4_0_eaeacab37e" x="287.643711" y="265.220925" style="fill: #2ca02c"/>
    </g>
    <g clip-path="url(#pcc624fcd33)">
     <use xlink:href="#C4_0_eaeacab37e" x="214.302832" y="238.276928" style="fill: #2ca02c"/>
    </g>
   </g>
   <g id="matplotlib.axis_1">
    <g id="xtick_1">
     <g id="line2d_1">
      <defs>
       <path id="m40c487cc2b" d="M 0 0 
L 0 3.5 
" style="stroke: #000000; stroke-width: 0.8"/>
      </defs>
      <g>
       <use xlink:href="#m40c487cc2b" x="52.685296" y="276.787725" style="stroke: #000000; stroke-width: 0.8"/>
      </g>
     </g>
     <g id="text_1">
      <!-- −3 -->
      <g transform="translate(45.314203 291.386162) scale(0.1 -0.1)">
       <defs>
        <path id="DejaVuSans-2212" d="M 678 2272 
L 4684 2272 
L 4684 1741 
L 678 1741 
L 678 2272 
z
" transform="scale(0.015625)"/>
        <path id="DejaVuSans-33" d="M 2597 2516 
Q 3050 2419 3304 2112 
Q 3559 1806 3559 1356 
Q 3559 666 3084 287 
Q 2609 -91 1734 -91 
Q 1441 -91 1130 -33 
Q 819 25 488 141 
L 488 750 
Q 750 597 1062 519 
Q 1375 441 1716 441 
Q 2309 441 2620 675 
Q 2931 909 2931 1356 
Q 2931 1769 2642 2001 
Q 2353 2234 1838 2234 
L 1294 2234 
L 1294 2753 
L 1863 2753 
Q 2328 2753 2575 2939 
Q 2822 3125 2822 3475 
Q 2822 3834 2567 4026 
Q 2313 4219 1838 4219 
Q 1578 4219 1281 4162 
Q 984 4106 628 3988 
L 628 4550 
Q 988 4650 1302 4700 
Q 1616 4750 1894 4750 
Q 2613 4750 3031 4423 
Q 3450 4097 3450 3541 
Q 3450 3153 3228 2886 
Q 3006 2619 2597 2516 
z
" transform="scale(0.015625)"/>
       </defs>
       <use xlink:href="#DejaVuSans-2212"/>
       <use xlink:href="#DejaVuSans-33" x="83.789062"/>
      </g>
     </g>
    </g>
    <g id="xtick_2">
     <g id="line2d_2">
      <g>
       <use xlink:href="#m40c487cc2b" x="91.079363" y="276.787725" style="stroke: #000000; stroke-width: 0.8"/>
      </g>
     </g>
     <g id="text_2">
      <!-- −2 -->
      <g transform="translate(83.708269 291.386162) scale(0.1 -0.1)">
       <defs>
        <path id="DejaVuSans-32" d="M 1228 531 
L 3431 531 
L 3431 0 
L 469 0 
L 469 531 
Q 828 903 1448 1529 
Q 2069 2156 2228 2338 
Q 2531 2678 2651 2914 
Q 2772 3150 2772 3378 
Q 2772 3750 2511 3984 
Q 2250 4219 1831 4219 
Q 1534 4219 1204 4116 
Q 875 4013 500 3803 
L 500 4441 
Q 881 4594 1212 4672 
Q 1544 4750 1819 4750 
Q 2544 4750 2975 4387 
Q 3406 4025 3406 3419 
Q 3406 3131 3298 2873 
Q 3191 2616 2906 2266 
Q 2828 2175 2409 1742 
Q 1991 1309 1228 531 
z
" transform="scale(0.015625)"/>
       </defs>
       <use xlink:href="#DejaVuSans-2212"/>
       <use xlink:href="#DejaVuSans-32" x="83.789062"/>
      </g>
     </g>
    </g>
    <g id="xtick_3">
     <g id="line2d_3">
      <g>
       <use xlink:href="#m40c487cc2b" x="129.47343" y="276.787725" style="stroke: #000000; stroke-width: 0.8"/>
      </g>
     </g>
     <g id="text_3">
      <!-- −1 -->
      <g transform="translate(122.102336 291.386162) scale(0.1 -0.1)">
       <defs>
        <path id="DejaVuSans-31" d="M 794 531 
L 1825 531 
L 1825 4091 
L 703 3866 
L 703 4441 
L 1819 4666 
L 2450 4666 
L 2450 531 
L 3481 531 
L 3481 0 
L 794 0 
L 794 531 
z
" transform="scale(0.015625)"/>
       </defs>
       <use xlink:href="#DejaVuSans-2212"/>
       <use xlink:href="#DejaVuSans-31" x="83.789062"/>
      </g>
     </g>
    </g>
    <g id="xtick_4">
     <g id="line2d_4">
      <g>
       <use xlink:href="#m40c487cc2b" x="167.867497" y="276.787725" style="stroke: #000000; stroke-width: 0.8"/>
      </g>
     </g>
     <g id="text_4">
      <!-- 0 -->
      <g transform="translate(164.686247 291.386162) scale(0.1 -0.1)">
       <defs>
        <path id="DejaVuSans-30" d="M 2034 4250 
Q 1547 4250 1301 3770 
Q 1056 3291 1056 2328 
Q 1056 1369 1301 889 
Q 1547 409 2034 409 
Q 2525 409 2770 889 
Q 3016 1369 3016 2328 
Q 3016 3291 2770 3770 
Q 2525 4250 2034 4250 
z
M 2034 4750 
Q 2819 4750 3233 4129 
Q 3647 3509 3647 2328 
Q 3647 1150 3233 529 
Q 2819 -91 2034 -91 
Q 1250 -91 836 529 
Q 422 1150 422 2328 
Q 422 3509 836 4129 
Q 1250 4750 2034 4750 
z
" transform="scale(0.015625)"/>
       </defs>
       <use xlink:href="#DejaVuSans-30"/>
      </g>
     </g>
    </g>
    <g id="xtick_5">
     <g id="line2d_5">
      <g>
       <use xlink:href="#m40c487cc2b" x="206.261564" y="276.787725" style="stroke: #000000; stroke-width: 0.8"/>
      </g>
     </g>
     <g id="text_5">
      <!-- 1 -->
      <g transform="translate(203.080314 291.386162) scale(0.1 -0.1)">
       <use xlink:href="#DejaVuSans-31"/>
      </g>
     </g>
    </g>
    <g id="xtick_6">
     <g id="line2d_6">
      <g>
       <use xlink:href="#m40c487cc2b" x="244.655631" y="276.787725" style="stroke: #000000; stroke-width: 0.8"/>
      </g>
     </g>
     <g id="text_6">
      <!-- 2 -->
      <g transform="translate(241.474381 291.386162) scale(0.1 -0.1)">
       <use xlink:href="#DejaVuSans-32"/>
      </g>
     </g>
    </g>
    <g id="xtick_7">
     <g id="line2d_7">
      <g>
       <use xlink:href="#m40c487cc2b" x="283.049697" y="276.787725" style="stroke: #000000; stroke-width: 0.8"/>
      </g>
     </g>
     <g id="text_7">
      <!-- 3 -->
      <g transform="translate(279.868447 291.386162) scale(0.1 -0.1)">
       <use xlink:href="#DejaVuSans-33"/>
      </g>
     </g>
    </g>
    <g id="xtick_8">
     <g id="line2d_8">
      <g>
       <use xlink:href="#m40c487cc2b" x="321.443764" y="276.787725" style="stroke: #000000; stroke-width: 0.8"/>
      </g>
     </g>
     <g id="text_8">
      <!-- 4 -->
      <g transform="translate(318.262514 291.386162) scale(0.1 -0.1)">
       <defs>
        <path id="DejaVuSans-34" d="M 2419 4116 
L 825 1625 
L 2419 1625 
L 2419 4116 
z
M 2253 4666 
L 3047 4666 
L 3047 1625 
L 3713 1625 
L 3713 1100 
L 3047 1100 
L 3047 0 
L 2419 0 
L 2419 1100 
L 313 1100 
L 313 1709 
L 2253 4666 
z
" transform="scale(0.015625)"/>
       </defs>
       <use xlink:href="#DejaVuSans-34"/>
      </g>
     </g>
    </g>
    <g id="text_9">
     <!-- Niche collapse axis (PC1v2) -->
     <g transform="translate(126.916094 305.064287) scale(0.1 -0.1)">
      <defs>
       <path id="DejaVuSans-4e" d="M 628 4666 
L 1478 4666 
L 3547 763 
L 3547 4666 
L 4159 4666 
L 4159 0 
L 3309 0 
L 1241 3903 
L 1241 0 
L 628 0 
L 628 4666 
z
" transform="scale(0.015625)"/>
       <path id="DejaVuSans-69" d="M 603 3500 
L 1178 3500 
L 1178 0 
L 603 0 
L 603 3500 
z
M 603 4863 
L 1178 4863 
L 1178 4134 
L 603 4134 
L 603 4863 
z
" transform="scale(0.015625)"/>
       <path id="DejaVuSans-63" d="M 3122 3366 
L 3122 2828 
Q 2878 2963 2633 3030 
Q 2388 3097 2138 3097 
Q 1578 3097 1268 2742 
Q 959 2388 959 1747 
Q 959 1106 1268 751 
Q 1578 397 2138 397 
Q 2388 397 2633 464 
Q 2878 531 3122 666 
L 3122 134 
Q 2881 22 2623 -34 
Q 2366 -91 2075 -91 
Q 1284 -91 818 406 
Q 353 903 353 1747 
Q 353 2603 823 3093 
Q 1294 3584 2113 3584 
Q 2378 3584 2631 3529 
Q 2884 3475 3122 3366 
z
" transform="scale(0.015625)"/>
       <path id="DejaVuSans-68" d="M 3513 2113 
L 3513 0 
L 2938 0 
L 2938 2094 
Q 2938 2591 2744 2837 
Q 2550 3084 2163 3084 
Q 1697 3084 1428 2787 
Q 1159 2491 1159 1978 
L 1159 0 
L 581 0 
L 581 4863 
L 1159 4863 
L 1159 2956 
Q 1366 3272 1645 3428 
Q 1925 3584 2291 3584 
Q 2894 3584 3203 3211 
Q 3513 2838 3513 2113 
z
" transform="scale(0.015625)"/>
       <path id="DejaVuSans-65" d="M 3597 1894 
L 3597 1613 
L 953 1613 
Q 991 1019 1311 708 
Q 1631 397 2203 397 
Q 2534 397 2845 478 
Q 3156 559 3463 722 
L 3463 178 
Q 3153 47 2828 -22 
Q 2503 -91 2169 -91 
Q 1331 -91 842 396 
Q 353 884 353 1716 
Q 353 2575 817 3079 
Q 1281 3584 2069 3584 
Q 2775 3584 3186 3129 
Q 3597 2675 3597 1894 
z
M 3022 2063 
Q 3016 2534 2758 2815 
Q 2500 3097 2075 3097 
Q 1594 3097 1305 2825 
Q 1016 2553 972 2059 
L 3022 2063 
z
" transform="scale(0.015625)"/>
       <path id="DejaVuSans-20" transform="scale(0.015625)"/>
       <path id="DejaVuSans-6f" d="M 1959 3097 
Q 1497 3097 1228 2736 
Q 959 2375 959 1747 
Q 959 1119 1226 758 
Q 1494 397 1959 397 
Q 2419 397 2687 759 
Q 2956 1122 2956 1747 
Q 2956 2369 2687 2733 
Q 2419 3097 1959 3097 
z
M 1959 3584 
Q 2709 3584 3137 3096 
Q 3566 2609 3566 1747 
Q 3566 888 3137 398 
Q 2709 -91 1959 -91 
Q 1206 -91 779 398 
Q 353 888 353 1747 
Q 353 2609 779 3096 
Q 1206 3584 1959 3584 
z
" transform="scale(0.015625)"/>
       <path id="DejaVuSans-6c" d="M 603 4863 
L 1178 4863 
L 1178 0 
L 603 0 
L 603 4863 
z
" transform="scale(0.015625)"/>
       <path id="DejaVuSans-61" d="M 2194 1759 
Q 1497 1759 1228 1600 
Q 959 1441 959 1056 
Q 959 750 1161 570 
Q 1363 391 1709 391 
Q 2188 391 2477 730 
Q 2766 1069 2766 1631 
L 2766 1759 
L 2194 1759 
z
M 3341 1997 
L 3341 0 
L 2766 0 
L 2766 531 
Q 2569 213 2275 61 
Q 1981 -91 1556 -91 
Q 1019 -91 701 211 
Q 384 513 384 1019 
Q 384 1609 779 1909 
Q 1175 2209 1959 2209 
L 2766 2209 
L 2766 2266 
Q 2766 2663 2505 2880 
Q 2244 3097 1772 3097 
Q 1472 3097 1187 3025 
Q 903 2953 641 2809 
L 641 3341 
Q 956 3463 1253 3523 
Q 1550 3584 1831 3584 
Q 2591 3584 2966 3190 
Q 3341 2797 3341 1997 
z
" transform="scale(0.015625)"/>
       <path id="DejaVuSans-70" d="M 1159 525 
L 1159 -1331 
L 581 -1331 
L 581 3500 
L 1159 3500 
L 1159 2969 
Q 1341 3281 1617 3432 
Q 1894 3584 2278 3584 
Q 2916 3584 3314 3078 
Q 3713 2572 3713 1747 
Q 3713 922 3314 415 
Q 2916 -91 2278 -91 
Q 1894 -91 1617 61 
Q 1341 213 1159 525 
z
M 3116 1747 
Q 3116 2381 2855 2742 
Q 2594 3103 2138 3103 
Q 1681 3103 1420 2742 
Q 1159 2381 1159 1747 
Q 1159 1113 1420 752 
Q 1681 391 2138 391 
Q 2594 391 2855 752 
Q 3116 1113 3116 1747 
z
" transform="scale(0.015625)"/>
       <path id="DejaVuSans-73" d="M 2834 3397 
L 2834 2853 
Q 2591 2978 2328 3040 
Q 2066 3103 1784 3103 
Q 1356 3103 1142 2972 
Q 928 2841 928 2578 
Q 928 2378 1081 2264 
Q 1234 2150 1697 2047 
L 1894 2003 
Q 2506 1872 2764 1633 
Q 3022 1394 3022 966 
Q 3022 478 2636 193 
Q 2250 -91 1575 -91 
Q 1294 -91 989 -36 
Q 684 19 347 128 
L 347 722 
Q 666 556 975 473 
Q 1284 391 1588 391 
Q 1994 391 2212 530 
Q 2431 669 2431 922 
Q 2431 1156 2273 1281 
Q 2116 1406 1581 1522 
L 1381 1569 
Q 847 1681 609 1914 
Q 372 2147 372 2553 
Q 372 3047 722 3315 
Q 1072 3584 1716 3584 
Q 2034 3584 2315 3537 
Q 2597 3491 2834 3397 
z
" transform="scale(0.015625)"/>
       <path id="DejaVuSans-78" d="M 3513 3500 
L 2247 1797 
L 3578 0 
L 2900 0 
L 1881 1375 
L 863 0 
L 184 0 
L 1544 1831 
L 300 3500 
L 978 3500 
L 1906 2253 
L 2834 3500 
L 3513 3500 
z
" transform="scale(0.015625)"/>
       <path id="DejaVuSans-28" d="M 1984 4856 
Q 1566 4138 1362 3434 
Q 1159 2731 1159 2009 
Q 1159 1288 1364 580 
Q 1569 -128 1984 -844 
L 1484 -844 
Q 1016 -109 783 600 
Q 550 1309 550 2009 
Q 550 2706 781 3412 
Q 1013 4119 1484 4856 
L 1984 4856 
z
" transform="scale(0.015625)"/>
       <path id="DejaVuSans-50" d="M 1259 4147 
L 1259 2394 
L 2053 2394 
Q 2494 2394 2734 2622 
Q 2975 2850 2975 3272 
Q 2975 3691 2734 3919 
Q 2494 4147 2053 4147 
L 1259 4147 
z
M 628 4666 
L 2053 4666 
Q 2838 4666 3239 4311 
Q 3641 3956 3641 3272 
Q 3641 2581 3239 2228 
Q 2838 1875 2053 1875 
L 1259 1875 
L 1259 0 
L 628 0 
L 628 4666 
z
" transform="scale(0.015625)"/>
       <path id="DejaVuSans-43" d="M 4122 4306 
L 4122 3641 
Q 3803 3938 3442 4084 
Q 3081 4231 2675 4231 
Q 1875 4231 1450 3742 
Q 1025 3253 1025 2328 
Q 1025 1406 1450 917 
Q 1875 428 2675 428 
Q 3081 428 3442 575 
Q 3803 722 4122 1019 
L 4122 359 
Q 3791 134 3420 21 
Q 3050 -91 2638 -91 
Q 1578 -91 968 557 
Q 359 1206 359 2328 
Q 359 3453 968 4101 
Q 1578 4750 2638 4750 
Q 3056 4750 3426 4639 
Q 3797 4528 4122 4306 
z
" transform="scale(0.015625)"/>
       <path id="DejaVuSans-76" d="M 191 3500 
L 800 3500 
L 1894 563 
L 2988 3500 
L 3597 3500 
L 2284 0 
L 1503 0 
L 191 3500 
z
" transform="scale(0.015625)"/>
       <path id="DejaVuSans-29" d="M 513 4856 
L 1013 4856 
Q 1481 4119 1714 3412 
Q 1947 2706 1947 2009 
Q 1947 1309 1714 600 
Q 1481 -109 1013 -844 
L 513 -844 
Q 928 -128 1133 580 
Q 1338 1288 1338 2009 
Q 1338 2731 1133 3434 
Q 928 4138 513 4856 
z
" transform="scale(0.015625)"/>
      </defs>
      <use xlink:href="#DejaVuSans-4e"/>
      <use xlink:href="#DejaVuSans-69" x="74.804688"/>
      <use xlink:href="#DejaVuSans-63" x="102.587891"/>
      <use xlink:href="#DejaVuSans-68" x="157.568359"/>
      <use xlink:href="#DejaVuSans-65" x="220.947266"/>
      <use xlink:href="#DejaVuSans-20" x="282.470703"/>
      <use xlink:href="#DejaVuSans-63" x="314.257812"/>
      <use xlink:href="#DejaVuSans-6f" x="369.238281"/>
      <use xlink:href="#DejaVuSans-6c" x="430.419922"/>
      <use xlink:href="#DejaVuSans-6c" x="458.203125"/>
      <use xlink:href="#DejaVuSans-61" x="485.986328"/>
      <use xlink:href="#DejaVuSans-70" x="547.265625"/>
      <use xlink:href="#DejaVuSans-73" x="610.742188"/>
      <use xlink:href="#DejaVuSans-65" x="662.841797"/>
      <use xlink:href="#DejaVuSans-20" x="724.365234"/>
      <use xlink:href="#DejaVuSans-61" x="756.152344"/>
      <use xlink:href="#DejaVuSans-78" x="817.431641"/>
      <use xlink:href="#DejaVuSans-69" x="876.611328"/>
      <use xlink:href="#DejaVuSans-73" x="904.394531"/>
      <use xlink:href="#DejaVuSans-20" x="956.494141"/>
      <use xlink:href="#DejaVuSans-28" x="988.28125"/>
      <use xlink:href="#DejaVuSans-50" x="1027.294922"/>
      <use xlink:href="#DejaVuSans-43" x="1087.597656"/>
      <use xlink:href="#DejaVuSans-31" x="1157.421875"/>
      <use xlink:href="#DejaVuSans-76" x="1221.044922"/>
      <use xlink:href="#DejaVuSans-32" x="1280.224609"/>
      <use xlink:href="#DejaVuSans-29" x="1343.847656"/>
     </g>
    </g>
   </g>
   <g id="matplotlib.axis_2">
    <g id="ytick_1">
     <g id="line2d_9">
      <defs>
       <path id="md0e825931c" d="M 0 0 
L -3.5 0 
" style="stroke: #000000; stroke-width: 0.8"/>
      </defs>
      <g>
       <use xlink:href="#md0e825931c" x="34.240625" y="265.220925" style="stroke: #000000; stroke-width: 0.8"/>
      </g>
     </g>
     <g id="text_10">
      <!-- 0 -->
      <g transform="translate(20.878125 269.020144) scale(0.1 -0.1)">
       <use xlink:href="#DejaVuSans-30"/>
      </g>
     </g>
    </g>
    <g id="ytick_2">
     <g id="line2d_10">
      <g>
       <use xlink:href="#md0e825931c" x="34.240625" y="211.332932" style="stroke: #000000; stroke-width: 0.8"/>
      </g>
     </g>
     <g id="text_11">
      <!-- 2 -->
      <g transform="translate(20.878125 215.132151) scale(0.1 -0.1)">
       <use xlink:href="#DejaVuSans-32"/>
      </g>
     </g>
    </g>
    <g id="ytick_3">
     <g id="line2d_11">
      <g>
       <use xlink:href="#md0e825931c" x="34.240625" y="157.444939" style="stroke: #000000; stroke-width: 0.8"/>
      </g>
     </g>
     <g id="text_12">
      <!-- 4 -->
      <g transform="translate(20.878125 161.244158) scale(0.1 -0.1)">
       <use xlink:href="#DejaVuSans-34"/>
      </g>
     </g>
    </g>
    <g id="ytick_4">
     <g id="line2d_12">
      <g>
       <use xlink:href="#md0e825931c" x="34.240625" y="103.556946" style="stroke: #000000; stroke-width: 0.8"/>
      </g>
     </g>
     <g id="text_13">
      <!-- 6 -->
      <g transform="translate(20.878125 107.356165) scale(0.1 -0.1)">
       <defs>
        <path id="DejaVuSans-36" d="M 2113 2584 
Q 1688 2584 1439 2293 
Q 1191 2003 1191 1497 
Q 1191 994 1439 701 
Q 1688 409 2113 409 
Q 2538 409 2786 701 
Q 3034 994 3034 1497 
Q 3034 2003 2786 2293 
Q 2538 2584 2113 2584 
z
M 3366 4563 
L 3366 3988 
Q 3128 4100 2886 4159 
Q 2644 4219 2406 4219 
Q 1781 4219 1451 3797 
Q 1122 3375 1075 2522 
Q 1259 2794 1537 2939 
Q 1816 3084 2150 3084 
Q 2853 3084 3261 2657 
Q 3669 2231 3669 1497 
Q 3669 778 3244 343 
Q 2819 -91 2113 -91 
Q 1303 -91 875 529 
Q 447 1150 447 2328 
Q 447 3434 972 4092 
Q 1497 4750 2381 4750 
Q 2619 4750 2861 4703 
Q 3103 4656 3366 4563 
z
" transform="scale(0.015625)"/>
       </defs>
       <use xlink:href="#DejaVuSans-36"/>
      </g>
     </g>
    </g>
    <g id="ytick_5">
     <g id="line2d_13">
      <g>
       <use xlink:href="#md0e825931c" x="34.240625" y="49.668953" style="stroke: #000000; stroke-width: 0.8"/>
      </g>
     </g>
     <g id="text_14">
      <!-- 8 -->
      <g transform="translate(20.878125 53.468172) scale(0.1 -0.1)">
       <defs>
        <path id="DejaVuSans-38" d="M 2034 2216 
Q 1584 2216 1326 1975 
Q 1069 1734 1069 1313 
Q 1069 891 1326 650 
Q 1584 409 2034 409 
Q 2484 409 2743 651 
Q 3003 894 3003 1313 
Q 3003 1734 2745 1975 
Q 2488 2216 2034 2216 
z
M 1403 2484 
Q 997 2584 770 2862 
Q 544 3141 544 3541 
Q 544 4100 942 4425 
Q 1341 4750 2034 4750 
Q 2731 4750 3128 4425 
Q 3525 4100 3525 3541 
Q 3525 3141 3298 2862 
Q 3072 2584 2669 2484 
Q 3125 2378 3379 2068 
Q 3634 1759 3634 1313 
Q 3634 634 3220 271 
Q 2806 -91 2034 -91 
Q 1263 -91 848 271 
Q 434 634 434 1313 
Q 434 1759 690 2068 
Q 947 2378 1403 2484 
z
M 1172 3481 
Q 1172 3119 1398 2916 
Q 1625 2713 2034 2713 
Q 2441 2713 2670 2916 
Q 2900 3119 2900 3481 
Q 2900 3844 2670 4047 
Q 2441 4250 2034 4250 
Q 1625 4250 1398 4047 
Q 1172 3844 1172 3481 
z
" transform="scale(0.015625)"/>
       </defs>
       <use xlink:href="#DejaVuSans-38"/>
      </g>
     </g>
    </g>
    <g id="text_15">
     <!-- Germline latest stage (0-7) -->
     <g transform="translate(14.798438 217.134956) rotate(-90) scale(0.1 -0.1)">
      <defs>
       <path id="DejaVuSans-47" d="M 3809 666 
L 3809 1919 
L 2778 1919 
L 2778 2438 
L 4434 2438 
L 4434 434 
Q 4069 175 3628 42 
Q 3188 -91 2688 -91 
Q 1594 -91 976 548 
Q 359 1188 359 2328 
Q 359 3472 976 4111 
Q 1594 4750 2688 4750 
Q 3144 4750 3555 4637 
Q 3966 4525 4313 4306 
L 4313 3634 
Q 3963 3931 3569 4081 
Q 3175 4231 2741 4231 
Q 1884 4231 1454 3753 
Q 1025 3275 1025 2328 
Q 1025 1384 1454 906 
Q 1884 428 2741 428 
Q 3075 428 3337 486 
Q 3600 544 3809 666 
z
" transform="scale(0.015625)"/>
       <path id="DejaVuSans-72" d="M 2631 2963 
Q 2534 3019 2420 3045 
Q 2306 3072 2169 3072 
Q 1681 3072 1420 2755 
Q 1159 2438 1159 1844 
L 1159 0 
L 581 0 
L 581 3500 
L 1159 3500 
L 1159 2956 
Q 1341 3275 1631 3429 
Q 1922 3584 2338 3584 
Q 2397 3584 2469 3576 
Q 2541 3569 2628 3553 
L 2631 2963 
z
" transform="scale(0.015625)"/>
       <path id="DejaVuSans-6d" d="M 3328 2828 
Q 3544 3216 3844 3400 
Q 4144 3584 4550 3584 
Q 5097 3584 5394 3201 
Q 5691 2819 5691 2113 
L 5691 0 
L 5113 0 
L 5113 2094 
Q 5113 2597 4934 2840 
Q 4756 3084 4391 3084 
Q 3944 3084 3684 2787 
Q 3425 2491 3425 1978 
L 3425 0 
L 2847 0 
L 2847 2094 
Q 2847 2600 2669 2842 
Q 2491 3084 2119 3084 
Q 1678 3084 1418 2786 
Q 1159 2488 1159 1978 
L 1159 0 
L 581 0 
L 581 3500 
L 1159 3500 
L 1159 2956 
Q 1356 3278 1631 3431 
Q 1906 3584 2284 3584 
Q 2666 3584 2933 3390 
Q 3200 3197 3328 2828 
z
" transform="scale(0.015625)"/>
       <path id="DejaVuSans-6e" d="M 3513 2113 
L 3513 0 
L 2938 0 
L 2938 2094 
Q 2938 2591 2744 2837 
Q 2550 3084 2163 3084 
Q 1697 3084 1428 2787 
Q 1159 2491 1159 1978 
L 1159 0 
L 581 0 
L 581 3500 
L 1159 3500 
L 1159 2956 
Q 1366 3272 1645 3428 
Q 1925 3584 2291 3584 
Q 2894 3584 3203 3211 
Q 3513 2838 3513 2113 
z
" transform="scale(0.015625)"/>
       <path id="DejaVuSans-74" d="M 1172 4494 
L 1172 3500 
L 2356 3500 
L 2356 3053 
L 1172 3053 
L 1172 1153 
Q 1172 725 1289 603 
Q 1406 481 1766 481 
L 2356 481 
L 2356 0 
L 1766 0 
Q 1100 0 847 248 
Q 594 497 594 1153 
L 594 3053 
L 172 3053 
L 172 3500 
L 594 3500 
L 594 4494 
L 1172 4494 
z
" transform="scale(0.015625)"/>
       <path id="DejaVuSans-67" d="M 2906 1791 
Q 2906 2416 2648 2759 
Q 2391 3103 1925 3103 
Q 1463 3103 1205 2759 
Q 947 2416 947 1791 
Q 947 1169 1205 825 
Q 1463 481 1925 481 
Q 2391 481 2648 825 
Q 2906 1169 2906 1791 
z
M 3481 434 
Q 3481 -459 3084 -895 
Q 2688 -1331 1869 -1331 
Q 1566 -1331 1297 -1286 
Q 1028 -1241 775 -1147 
L 775 -588 
Q 1028 -725 1275 -790 
Q 1522 -856 1778 -856 
Q 2344 -856 2625 -561 
Q 2906 -266 2906 331 
L 2906 616 
Q 2728 306 2450 153 
Q 2172 0 1784 0 
Q 1141 0 747 490 
Q 353 981 353 1791 
Q 353 2603 747 3093 
Q 1141 3584 1784 3584 
Q 2172 3584 2450 3431 
Q 2728 3278 2906 2969 
L 2906 3500 
L 3481 3500 
L 3481 434 
z
" transform="scale(0.015625)"/>
       <path id="DejaVuSans-2d" d="M 313 2009 
L 1997 2009 
L 1997 1497 
L 313 1497 
L 313 2009 
z
" transform="scale(0.015625)"/>
       <path id="DejaVuSans-37" d="M 525 4666 
L 3525 4666 
L 3525 4397 
L 1831 0 
L 1172 0 
L 2766 4134 
L 525 4134 
L 525 4666 
z
" transform="scale(0.015625)"/>
      </defs>
      <use xlink:href="#DejaVuSans-47"/>
      <use xlink:href="#DejaVuSans-65" x="77.490234"/>
      <use xlink:href="#DejaVuSans-72" x="139.013672"/>
      <use xlink:href="#DejaVuSans-6d" x="178.376953"/>
      <use xlink:href="#DejaVuSans-6c" x="275.789062"/>
      <use xlink:href="#DejaVuSans-69" x="303.572266"/>
      <use xlink:href="#DejaVuSans-6e" x="331.355469"/>
      <use xlink:href="#DejaVuSans-65" x="394.734375"/>
      <use xlink:href="#DejaVuSans-20" x="456.257812"/>
      <use xlink:href="#DejaVuSans-6c" x="488.044922"/>
      <use xlink:href="#DejaVuSans-61" x="515.828125"/>
      <use xlink:href="#DejaVuSans-74" x="577.107422"/>
      <use xlink:href="#DejaVuSans-65" x="616.316406"/>
      <use xlink:href="#DejaVuSans-73" x="677.839844"/>
      <use xlink:href="#DejaVuSans-74" x="729.939453"/>
      <use xlink:href="#DejaVuSans-20" x="769.148438"/>
      <use xlink:href="#DejaVuSans-73" x="800.935547"/>
      <use xlink:href="#DejaVuSans-74" x="853.035156"/>
      <use xlink:href="#DejaVuSans-61" x="892.244141"/>
      <use xlink:href="#DejaVuSans-67" x="953.523438"/>
      <use xlink:href="#DejaVuSans-65" x="1017"/>
      <use xlink:href="#DejaVuSans-20" x="1078.523438"/>
      <use xlink:href="#DejaVuSans-28" x="1110.310547"/>
      <use xlink:href="#DejaVuSans-30" x="1149.324219"/>
      <use xlink:href="#DejaVuSans-2d" x="1212.947266"/>
      <use xlink:href="#DejaVuSans-37" x="1249.03125"/>
      <use xlink:href="#DejaVuSans-29" x="1312.654297"/>
     </g>
    </g>
   </g>
   <g id="line2d_14">
    <path d="M 48.951534 33.884925 
L 51.923435 36.131171 
L 54.895336 38.377417 
L 57.867237 40.623663 
L 60.839137 42.869909 
L 63.811038 45.116155 
L 66.782939 47.362401 
L 69.75484 49.608647 
L 72.726741 51.854893 
L 75.698642 54.101139 
L 78.670542 56.347385 
L 81.642443 58.593631 
L 84.614344 60.839876 
L 87.586245 63.086122 
L 90.558146 65.332368 
L 93.530046 67.578614 
L 96.501947 69.82486 
L 99.473848 72.071106 
L 102.445749 74.317352 
L 105.41765 76.563598 
L 108.389551 78.809844 
L 111.361451 81.05609 
L 114.333352 83.302336 
L 117.305253 85.548582 
L 120.277154 87.794828 
L 123.249055 90.041074 
L 126.220956 92.28732 
L 129.192856 94.533566 
L 132.164757 96.779812 
L 135.136658 99.026058 
L 138.108559 101.272304 
L 141.08046 103.51855 
L 144.052361 105.764796 
L 147.024261 108.011042 
L 149.996162 110.257288 
L 152.968063 112.503533 
L 155.939964 114.749779 
L 158.911865 116.996025 
L 161.883765 119.242271 
L 164.855666 121.488517 
L 167.827567 123.734763 
L 170.799468 125.981009 
L 173.771369 128.227255 
L 176.74327 130.473501 
L 179.71517 132.719747 
L 182.687071 134.965993 
L 185.658972 137.212239 
L 188.630873 139.458485 
L 191.602774 141.704731 
L 194.574675 143.950977 
L 197.546575 146.197223 
L 200.518476 148.443469 
L 203.490377 150.689715 
L 206.462278 152.935961 
L 209.434179 155.182207 
L 212.40608 157.428453 
L 215.37798 159.674699 
L 218.349881 161.920944 
L 221.321782 164.16719 
L 224.293683 166.413436 
L 227.265584 168.659682 
L 230.237485 170.905928 
L 233.209385 173.152174 
L 236.181286 175.39842 
L 239.153187 177.644666 
L 242.125088 179.890912 
L 245.096989 182.137158 
L 248.068889 184.383404 
L 251.04079 186.62965 
L 254.012691 188.875896 
L 256.984592 191.122142 
L 259.956493 193.368388 
L 262.928394 195.614634 
L 265.900294 197.86088 
L 268.872195 200.107126 
L 271.844096 202.353372 
L 274.815997 204.599618 
L 277.787898 206.845864 
L 280.759799 209.09211 
L 283.731699 211.338356 
L 286.7036 213.584601 
L 289.675501 215.830847 
L 292.647402 218.077093 
L 295.619303 220.323339 
L 298.591204 222.569585 
L 301.563104 224.815831 
L 304.535005 227.062077 
L 307.506906 229.308323 
L 310.478807 231.554569 
L 313.450708 233.800815 
L 316.422608 236.047061 
L 319.394509 238.293307 
L 322.36641 240.539553 
L 325.338311 242.785799 
L 328.310212 245.032045 
L 331.282113 247.278291 
L 334.254013 249.524537 
L 337.225914 251.770783 
L 340.197815 254.017029 
L 343.169716 256.263275 
" clip-path="url(#pcc624fcd33)" style="fill: none; stroke: #000000; stroke-linecap: square"/>
   </g>
   <g id="patch_3">
    <path d="M 34.240625 276.787725 
L 34.240625 22.318125 
" style="fill: none; stroke: #000000; stroke-width: 0.8; stroke-linejoin: miter; stroke-linecap: square"/>
   </g>
   <g id="patch_4">
    <path d="M 357.880625 276.787725 
L 357.880625 22.318125 
" style="fill: none; stroke: #000000; stroke-width: 0.8; stroke-linejoin: miter; stroke-linecap: square"/>
   </g>
   <g id="patch_5">
    <path d="M 34.240625 276.787725 
L 357.880625 276.787725 
" style="fill: none; stroke: #000000; stroke-width: 0.8; stroke-linejoin: miter; stroke-linecap: square"/>
   </g>
   <g id="patch_6">
    <path d="M 34.240625 22.318125 
L 357.880625 22.318125 
" style="fill: none; stroke: #000000; stroke-width: 0.8; stroke-linejoin: miter; stroke-linecap: square"/>
   </g>
   <g id="text_16">
    <!-- Spearman rho = -0.77 -->
    <g transform="translate(240.107825 248.242049) scale(0.1 -0.1)">
     <defs>
      <path id="DejaVuSans-53" d="M 3425 4513 
L 3425 3897 
Q 3066 4069 2747 4153 
Q 2428 4238 2131 4238 
Q 1616 4238 1336 4038 
Q 1056 3838 1056 3469 
Q 1056 3159 1242 3001 
Q 1428 2844 1947 2747 
L 2328 2669 
Q 3034 2534 3370 2195 
Q 3706 1856 3706 1288 
Q 3706 609 3251 259 
Q 2797 -91 1919 -91 
Q 1588 -91 1214 -16 
Q 841 59 441 206 
L 441 856 
Q 825 641 1194 531 
Q 1563 422 1919 422 
Q 2459 422 2753 634 
Q 3047 847 3047 1241 
Q 3047 1584 2836 1778 
Q 2625 1972 2144 2069 
L 1759 2144 
Q 1053 2284 737 2584 
Q 422 2884 422 3419 
Q 422 4038 858 4394 
Q 1294 4750 2059 4750 
Q 2388 4750 2728 4690 
Q 3069 4631 3425 4513 
z
" transform="scale(0.015625)"/>
      <path id="DejaVuSans-3d" d="M 678 2906 
L 4684 2906 
L 4684 2381 
L 678 2381 
L 678 2906 
z
M 678 1631 
L 4684 1631 
L 4684 1100 
L 678 1100 
L 678 1631 
z
" transform="scale(0.015625)"/>
      <path id="DejaVuSans-2e" d="M 684 794 
L 1344 794 
L 1344 0 
L 684 0 
L 684 794 
z
" transform="scale(0.015625)"/>
     </defs>
     <use xlink:href="#DejaVuSans-53"/>
     <use xlink:href="#DejaVuSans-70" x="63.476562"/>
     <use xlink:href="#DejaVuSans-65" x="126.953125"/>
     <use xlink:href="#DejaVuSans-61" x="188.476562"/>
     <use xlink:href="#DejaVuSans-72" x="249.755859"/>
     <use xlink:href="#DejaVuSans-6d" x="289.119141"/>
     <use xlink:href="#DejaVuSans-61" x="386.53125"/>
     <use xlink:href="#DejaVuSans-6e" x="447.810547"/>
     <use xlink:href="#DejaVuSans-20" x="511.189453"/>
     <use xlink:href="#DejaVuSans-72" x="542.976562"/>
     <use xlink:href="#DejaVuSans-68" x="582.339844"/>
     <use xlink:href="#DejaVuSans-6f" x="645.71875"/>
     <use xlink:href="#DejaVuSans-20" x="706.900391"/>
     <use xlink:href="#DejaVuSans-3d" x="738.6875"/>
     <use xlink:href="#DejaVuSans-20" x="822.476562"/>
     <use xlink:href="#DejaVuSans-2d" x="854.263672"/>
     <use xlink:href="#DejaVuSans-30" x="890.347656"/>
     <use xlink:href="#DejaVuSans-2e" x="953.970703"/>
     <use xlink:href="#DejaVuSans-37" x="985.757812"/>
     <use xlink:href="#DejaVuSans-37" x="1049.380859"/>
    </g>
    <!-- P = 0.000455938 -->
    <g transform="translate(263.839075 259.439861) scale(0.1 -0.1)">
     <defs>
      <path id="DejaVuSans-35" d="M 691 4666 
L 3169 4666 
L 3169 4134 
L 1269 4134 
L 1269 2991 
Q 1406 3038 1543 3061 
Q 1681 3084 1819 3084 
Q 2600 3084 3056 2656 
Q 3513 2228 3513 1497 
Q 3513 744 3044 326 
Q 2575 -91 1722 -91 
Q 1428 -91 1123 -41 
Q 819 9 494 109 
L 494 744 
Q 775 591 1075 516 
Q 1375 441 1709 441 
Q 2250 441 2565 725 
Q 2881 1009 2881 1497 
Q 2881 1984 2565 2268 
Q 2250 2553 1709 2553 
Q 1456 2553 1204 2497 
Q 953 2441 691 2322 
L 691 4666 
z
" transform="scale(0.015625)"/>
      <path id="DejaVuSans-39" d="M 703 97 
L 703 672 
Q 941 559 1184 500 
Q 1428 441 1663 441 
Q 2288 441 2617 861 
Q 2947 1281 2994 2138 
Q 2813 1869 2534 1725 
Q 2256 1581 1919 1581 
Q 1219 1581 811 2004 
Q 403 2428 403 3163 
Q 403 3881 828 4315 
Q 1253 4750 1959 4750 
Q 2769 4750 3195 4129 
Q 3622 3509 3622 2328 
Q 3622 1225 3098 567 
Q 2575 -91 1691 -91 
Q 1453 -91 1209 -44 
Q 966 3 703 97 
z
M 1959 2075 
Q 2384 2075 2632 2365 
Q 2881 2656 2881 3163 
Q 2881 3666 2632 3958 
Q 2384 4250 1959 4250 
Q 1534 4250 1286 3958 
Q 1038 3666 1038 3163 
Q 1038 2656 1286 2365 
Q 1534 2075 1959 2075 
z
" transform="scale(0.015625)"/>
     </defs>
     <use xlink:href="#DejaVuSans-50"/>
     <use xlink:href="#DejaVuSans-20" x="60.302734"/>
     <use xlink:href="#DejaVuSans-3d" x="92.089844"/>
     <use xlink:href="#DejaVuSans-20" x="175.878906"/>
     <use xlink:href="#DejaVuSans-30" x="207.666016"/>
     <use xlink:href="#DejaVuSans-2e" x="271.289062"/>
     <use xlink:href="#DejaVuSans-30" x="303.076172"/>
     <use xlink:href="#DejaVuSans-30" x="366.699219"/>
     <use xlink:href="#DejaVuSans-30" x="430.322266"/>
     <use xlink:href="#DejaVuSans-34" x="493.945312"/>
     <use xlink:href="#DejaVuSans-35" x="557.568359"/>
     <use xlink:href="#DejaVuSans-35" x="621.191406"/>
     <use xlink:href="#DejaVuSans-39" x="684.814453"/>
     <use xlink:href="#DejaVuSans-33" x="748.4375"/>
     <use xlink:href="#DejaVuSans-38" x="812.060547"/>
    </g>
   </g>
   <g id="text_17">
    <!-- Panel D -->
    <g transform="translate(173.347813 16.318125) scale(0.12 -0.12)">
     <defs>
      <path id="DejaVuSans-44" d="M 1259 4147 
L 1259 519 
L 2022 519 
Q 2988 519 3436 956 
Q 3884 1394 3884 2338 
Q 3884 3275 3436 3711 
Q 2988 4147 2022 4147 
L 1259 4147 
z
M 628 4666 
L 1925 4666 
Q 3281 4666 3915 4102 
Q 4550 3538 4550 2338 
Q 4550 1131 3912 565 
Q 3275 0 1925 0 
L 628 0 
L 628 4666 
z
" transform="scale(0.015625)"/>
     </defs>
     <use xlink:href="#DejaVuSans-50"/>
     <use xlink:href="#DejaVuSans-61" x="55.802734"/>
     <use xlink:href="#DejaVuSans-6e" x="117.082031"/>
     <use xlink:href="#DejaVuSans-65" x="180.460938"/>
     <use xlink:href="#DejaVuSans-6c" x="241.984375"/>
     <use xlink:href="#DejaVuSans-20" x="269.767578"/>
     <use xlink:href="#DejaVuSans-44" x="301.554688"/>
    </g>
   </g>
   <g id="legend_1">
    <g id="PathCollection_7">
     <path d="M 299.023125 36.737245 
C 299.882481 36.737245 300.706756 36.395819 301.314413 35.788163 
C 301.922069 35.180506 302.263495 34.356231 302.263495 33.496875 
C 302.263495 32.637519 301.922069 31.813244 301.314413 31.205587 
C 300.706756 30.597931 299.882481 30.256505 299.023125 30.256505 
C 298.163769 30.256505 297.339494 30.597931 296.731837 31.205587 
C 296.124181 31.813244 295.782755 32.637519 295.782755 33.496875 
C 295.782755 34.356231 296.124181 35.180506 296.731837 35.788163 
C 297.339494 36.395819 298.163769 36.737245 299.023125 36.737245 
z
" style="fill: #9467bd"/>
    </g>
    <g id="text_18">
     <!-- AZFc_Del -->
     <g transform="translate(313.423125 35.596875) scale(0.08 -0.08)">
      <defs>
       <path id="DejaVuSans-41" d="M 2188 4044 
L 1331 1722 
L 3047 1722 
L 2188 4044 
z
M 1831 4666 
L 2547 4666 
L 4325 0 
L 3669 0 
L 3244 1197 
L 1141 1197 
L 716 0 
L 50 0 
L 1831 4666 
z
" transform="scale(0.015625)"/>
       <path id="DejaVuSans-5a" d="M 359 4666 
L 4025 4666 
L 4025 4184 
L 1075 531 
L 4097 531 
L 4097 0 
L 288 0 
L 288 481 
L 3238 4134 
L 359 4134 
L 359 4666 
z
" transform="scale(0.015625)"/>
       <path id="DejaVuSans-46" d="M 628 4666 
L 3309 4666 
L 3309 4134 
L 1259 4134 
L 1259 2759 
L 3109 2759 
L 3109 2228 
L 1259 2228 
L 1259 0 
L 628 0 
L 628 4666 
z
" transform="scale(0.015625)"/>
       <path id="DejaVuSans-5f" d="M 3263 -1063 
L 3263 -1509 
L -63 -1509 
L -63 -1063 
L 3263 -1063 
z
" transform="scale(0.015625)"/>
      </defs>
      <use xlink:href="#DejaVuSans-41"/>
      <use xlink:href="#DejaVuSans-5a" x="68.408203"/>
      <use xlink:href="#DejaVuSans-46" x="136.914062"/>
      <use xlink:href="#DejaVuSans-63" x="194.433594"/>
      <use xlink:href="#DejaVuSans-5f" x="249.414062"/>
      <use xlink:href="#DejaVuSans-44" x="299.414062"/>
      <use xlink:href="#DejaVuSans-65" x="376.416016"/>
      <use xlink:href="#DejaVuSans-6c" x="437.939453"/>
     </g>
    </g>
    <g id="PathCollection_8">
     <path d="M 299.023125 48.702245 
C 299.882481 48.702245 300.706756 48.360819 301.314413 47.753163 
C 301.922069 47.145506 302.263495 46.321231 302.263495 45.461875 
C 302.263495 44.602519 301.922069 43.778244 301.314413 43.170587 
C 300.706756 42.562931 299.882481 42.221505 299.023125 42.221505 
C 298.163769 42.221505 297.339494 42.562931 296.731837 43.170587 
C 296.124181 43.778244 295.782755 44.602519 295.782755 45.461875 
C 295.782755 46.321231 296.124181 47.145506 296.731837 47.753163 
C 297.339494 48.360819 298.163769 48.702245 299.023125 48.702245 
z
" style="fill: #1f77b4"/>
    </g>
    <g id="text_19">
     <!-- Ctrl -->
     <g transform="translate(313.423125 47.561875) scale(0.08 -0.08)">
      <use xlink:href="#DejaVuSans-43"/>
      <use xlink:href="#DejaVuSans-74" x="69.824219"/>
      <use xlink:href="#DejaVuSans-72" x="109.033203"/>
      <use xlink:href="#DejaVuSans-6c" x="150.146484"/>
     </g>
    </g>
    <g id="PathCollection_9">
     <path d="M 299.023125 60.444745 
C 299.882481 60.444745 300.706756 60.103319 301.314413 59.495663 
C 301.922069 58.888006 302.263495 58.063731 302.263495 57.204375 
C 302.263495 56.345019 301.922069 55.520744 301.314413 54.913087 
C 300.706756 54.305431 299.882481 53.964005 299.023125 53.964005 
C 298.163769 53.964005 297.339494 54.305431 296.731837 54.913087 
C 296.124181 55.520744 295.782755 56.345019 295.782755 57.204375 
C 295.782755 58.063731 296.124181 58.888006 296.731837 59.495663 
C 297.339494 60.103319 298.163769 60.444745 299.023125 60.444745 
z
" style="fill: #8c564b"/>
    </g>
    <g id="text_20">
     <!-- KS -->
     <g transform="translate(313.423125 59.304375) scale(0.08 -0.08)">
      <defs>
       <path id="DejaVuSans-4b" d="M 628 4666 
L 1259 4666 
L 1259 2694 
L 3353 4666 
L 4166 4666 
L 1850 2491 
L 4331 0 
L 3500 0 
L 1259 2247 
L 1259 0 
L 628 0 
L 628 4666 
z
" transform="scale(0.015625)"/>
      </defs>
      <use xlink:href="#DejaVuSans-4b"/>
      <use xlink:href="#DejaVuSans-53" x="65.576172"/>
     </g>
    </g>
    <g id="PathCollection_10">
     <path d="M 299.023125 72.187245 
C 299.882481 72.187245 300.706756 71.845819 301.314413 71.238163 
C 301.922069 70.630506 302.263495 69.806231 302.263495 68.946875 
C 302.263495 68.087519 301.922069 67.263244 301.314413 66.655587 
C 300.706756 66.047931 299.882481 65.706505 299.023125 65.706505 
C 298.163769 65.706505 297.339494 66.047931 296.731837 66.655587 
C 296.124181 67.263244 295.782755 68.087519 295.782755 68.946875 
C 295.782755 69.806231 296.124181 70.630506 296.731837 71.238163 
C 297.339494 71.845819 298.163769 72.187245 299.023125 72.187245 
z
" style="fill: #d62728"/>
    </g>
    <g id="text_21">
     <!-- OA -->
     <g transform="translate(313.423125 71.046875) scale(0.08 -0.08)">
      <defs>
       <path id="DejaVuSans-4f" d="M 2522 4238 
Q 1834 4238 1429 3725 
Q 1025 3213 1025 2328 
Q 1025 1447 1429 934 
Q 1834 422 2522 422 
Q 3209 422 3611 934 
Q 4013 1447 4013 2328 
Q 4013 3213 3611 3725 
Q 3209 4238 2522 4238 
z
M 2522 4750 
Q 3503 4750 4090 4092 
Q 4678 3434 4678 2328 
Q 4678 1225 4090 567 
Q 3503 -91 2522 -91 
Q 1538 -91 948 565 
Q 359 1222 359 2328 
Q 359 3434 948 4092 
Q 1538 4750 2522 4750 
z
" transform="scale(0.015625)"/>
      </defs>
      <use xlink:href="#DejaVuSans-4f"/>
      <use xlink:href="#DejaVuSans-41" x="76.960938"/>
     </g>
    </g>
    <g id="PathCollection_11">
     <path d="M 299.023125 83.929745 
C 299.882481 83.929745 300.706756 83.588319 301.314413 82.980663 
C 301.922069 82.373006 302.263495 81.548731 302.263495 80.689375 
C 302.263495 79.830019 301.922069 79.005744 301.314413 78.398087 
C 300.706756 77.790431 299.882481 77.449005 299.023125 77.449005 
C 298.163769 77.449005 297.339494 77.790431 296.731837 78.398087 
C 296.124181 79.005744 295.782755 79.830019 295.782755 80.689375 
C 295.782755 81.548731 296.124181 82.373006 296.731837 82.980663 
C 297.339494 83.588319 298.163769 83.929745 299.023125 83.929745 
z
" style="fill: #ff7f0e"/>
    </g>
    <g id="text_22">
     <!-- iNOA_B -->
     <g transform="translate(313.423125 82.789375) scale(0.08 -0.08)">
      <defs>
       <path id="DejaVuSans-42" d="M 1259 2228 
L 1259 519 
L 2272 519 
Q 2781 519 3026 730 
Q 3272 941 3272 1375 
Q 3272 1813 3026 2020 
Q 2781 2228 2272 2228 
L 1259 2228 
z
M 1259 4147 
L 1259 2741 
L 2194 2741 
Q 2656 2741 2882 2914 
Q 3109 3088 3109 3444 
Q 3109 3797 2882 3972 
Q 2656 4147 2194 4147 
L 1259 4147 
z
M 628 4666 
L 2241 4666 
Q 2963 4666 3353 4366 
Q 3744 4066 3744 3513 
Q 3744 3084 3544 2831 
Q 3344 2578 2956 2516 
Q 3422 2416 3680 2098 
Q 3938 1781 3938 1306 
Q 3938 681 3513 340 
Q 3088 0 2303 0 
L 628 0 
L 628 4666 
z
" transform="scale(0.015625)"/>
      </defs>
      <use xlink:href="#DejaVuSans-69"/>
      <use xlink:href="#DejaVuSans-4e" x="27.783203"/>
      <use xlink:href="#DejaVuSans-4f" x="102.587891"/>
      <use xlink:href="#DejaVuSans-41" x="179.548828"/>
      <use xlink:href="#DejaVuSans-5f" x="247.957031"/>
      <use xlink:href="#DejaVuSans-42" x="297.957031"/>
     </g>
    </g>
    <g id="PathCollection_12">
     <path d="M 299.023125 95.894745 
C 299.882481 95.894745 300.706756 95.553319 301.314413 94.945663 
C 301.922069 94.338006 302.263495 93.513731 302.263495 92.654375 
C 302.263495 91.795019 301.922069 90.970744 301.314413 90.363087 
C 300.706756 89.755431 299.882481 89.414005 299.023125 89.414005 
C 298.163769 89.414005 297.339494 89.755431 296.731837 90.363087 
C 296.124181 90.970744 295.782755 91.795019 295.782755 92.654375 
C 295.782755 93.513731 296.124181 94.338006 296.731837 94.945663 
C 297.339494 95.553319 298.163769 95.894745 299.023125 95.894745 
z
" style="fill: #2ca02c"/>
    </g>
    <g id="text_23">
     <!-- iNOA_S -->
     <g transform="translate(313.423125 94.754375) scale(0.08 -0.08)">
      <use xlink:href="#DejaVuSans-69"/>
      <use xlink:href="#DejaVuSans-4e" x="27.783203"/>
      <use xlink:href="#DejaVuSans-4f" x="102.587891"/>
      <use xlink:href="#DejaVuSans-41" x="179.548828"/>
      <use xlink:href="#DejaVuSans-5f" x="247.957031"/>
      <use xlink:href="#DejaVuSans-53" x="297.957031"/>
     </g>
    </g>
   </g>
  </g>
 </g>
 <defs>
  <clipPath id="pcc624fcd33">
   <rect x="34.240625" y="22.318125" width="323.64" height="254.4696"/>
  </clipPath>
 </defs>
</svg>
